# xmcd
#
# Track frame offsets:
#	150
#	19348
#	48038
#	56419
#	69559
#	80454
#	92910
#	106554
#	117854
#	136865
#	147349
#	167705
#
# Disc length: 2407 seconds
#
# Revision: 3
# Processed by: cddbd v1.5.2PL0 Copyright (c) Steve Scherf et al.
# Submitted via: audiograbber 1.83.01
#
DISCID=9709650c
DTITLE=Various Artist - 25 Best Blues Classics [CD#2)
DYEAR=2008
DGENRE=Blues
TTITLE0=Jelly Roll Morton - Dead Man Blues
TTITLE1=Joe Turner - Stormy Monday Blues
TTITLE2=Big Joe Williams - Baby Please Don't Go
TTITLE3=Dinah Washington - Begging Mama Blues
TTITLE4=Roy Milton - Information Blues
TTITLE5=Amos Milburn - Chikin Shack Boogie
TTITLE6=Billie Holliday - The Blues Are A Brewin
TTITLE7=John Lee Hooker - Boom Boom Boom
TTITLE8=John Mayall - John Lee Boogie
TTITLE9=B.B. King - Why I Sing The Blues
TTITLE10=Buddy Guy and Junior Wells - Every Day I Have The Blues
TTITLE11=Charles Brown - Big Legged Woman
EXTD=
EXTT0=
EXTT1=
EXTT2=
EXTT3=
EXTT4=
EXTT5=
EXTT6=
EXTT7=
EXTT8=
EXTT9=
EXTT10=
EXTT11=
PLAYORDER=
